<?xml version="1.0" encoding="utf-8"?>
<!-- Generator: Adobe Illustrator 19.1.1, SVG Export Plug-In . SVG Version: 6.00 Build 0)  -->
<svg version="1.1" id="Layer_1" xmlns="http://www.w3.org/2000/svg" xmlns:xlink="http://www.w3.org/1999/xlink" x="0px" y="0px"
	 viewBox="0 0 156 78" style="enable-background:new 0 0 156 78;" xml:space="preserve">
<style type="text/css">
	.st0{fill:#F9F8F8;}
	.st1{fill:none;}
	.st2{fill:#E8800F;}
</style>
<path class="st0" d="M15.9,36.2c5,30.1,38.8,38,38.8,38C108.4,90,156.2,41.5,156.2,41.5"/>
<g>
	<rect x="116.5" y="40.7" class="st1" width="27.4" height="1"/>
	<rect x="0" y="40.7" class="st1" width="27.4" height="1"/>
	<rect x="6.1" y="40.7" class="st1" width="21.3" height="1"/>
</g>
<g>
	<g>
		<g>
			<path class="st2" d="M85,26.4c-1.8,3.6-5.9,9.1-10.5,9.1c-3.4,0-4.9-2.9-4.6-5.7c-0.8,2.3-3.8,5.7-8.1,5.7
				c-4.6,0-5.8-3.5-5.8-7.5c0-4.2,1.5-8.2,1.5-12.3c0-0.8-0.1-1.5-0.3-2.2l0.2-0.6l4.9-0.9l0.5,0.1c0.2,0.8,0.3,1.6,0.3,2.4
				c0,4.6-1.8,9-1.8,13.5c0,1.1,0.1,3.7,1.7,3.7c4.8,0,6.7-12.4,6.7-15.9c0-1-0.1-2-0.4-3.1l5.3-0.8l0.5,0.1
				c0.2,0.8,0.3,1.5,0.3,2.3c0,4.7-2.3,9.2-2.3,13.9c0,1.1,0.3,3.5,1.8,3.5c4.6,0,7.2-12.9,7.2-16.5c0-0.8,0-1.6-0.2-2.4l4.9-0.8
				l0.5,0.1c0.2,1,0.3,1.9,0.3,3C87.9,18.8,86.6,23.1,85,26.4"/>
			<path class="st2" d="M104.3,15.3c-2.6,0-6.1,1.7-6.7,6.6c0,0-0.6,3.5-1,6.5l-0.3,2.2c1,1.1,2.2,2.1,3.8,2.1
				c5.4,0,7.2-8.5,7.2-12.6C107.3,18,107.1,15.3,104.3,15.3 M100.1,35.6c-3.8,0-6.6-1.1-9.6-3.4l-0.1-0.4c1.3-6.4,2.3-13,3.4-19.4
				c0.5-2.9,1.1-6.1,1.1-9.1c0-0.6-0.1-1.2-0.2-1.7l0.2-0.6l5-0.9c0,0,0.5,0.1,0.6,0.1c0.2,0.6,0.3,1.2,0.3,1.8c0,2-0.5,4.7-0.9,6.9
				c-0.4,2.1-0.7,4.1-1.1,6.3c2.4-1.6,5.1-3.2,8.1-3.2c4.6,0,6,4.4,6,8.3C113,27.7,108.5,35.6,100.1,35.6"/>
			<path class="st2" d="M44.8,14.6c1.6,0,2.7,1.1,2.7,2.7c0,4.2-5.7,4.9-8.9,5.2C39.2,19.5,41.1,14.6,44.8,14.6 M52.8,45.7
				c-15.9-8.3-14.6-20-14.5-20.5c5.1,0,14.6-0.8,14.6-7.8c0-4.3-3.9-5.7-7.6-5.7c-6.6,0-11.1,5.2-12.3,11.2
				c-0.2,0.1-4.6,0.4-7.5,0.5l-0.6,1.7l0.5,0.3c4.6,0,7.4-0.1,7.4-0.1c0,0.1,0,0.2,0,0.3l0,0c0.5,24.2,26.1,30.6,26.1,30.6
				c43.8,13.5,83.9-27.9,83.9-27.9C89,64.5,52.8,45.7,52.8,45.7"/>
		</g>
	</g>
</g>
</svg>
